<?xml version="1.0" encoding="UTF-8" standalone="no"?>
<!-- Created with Inkscape (http://www.inkscape.org/) -->
<svg id="svg2" xmlns:rdf="http://www.w3.org/1999/02/22-rdf-syntax-ns#" xmlns="http://www.w3.org/2000/svg" xml:space="preserve" height="42.35" width="43.534" version="1.1" xmlns:cc="http://creativecommons.org/ns#" xmlns:xlink="http://www.w3.org/1999/xlink" xmlns:dc="http://purl.org/dc/elements/1.1/"><metadata id="metadata8"><rdf:RDF><cc:Work rdf:about=""><dc:format>image/svg+xml</dc:format><dc:type rdf:resource="http://purl.org/dc/dcmitype/StillImage"/><dc:title/></cc:Work></rdf:RDF></metadata><defs id="defs6"><clipPath id="clipPath104" clipPathUnits="userSpaceOnUse"><path id="path106" d="m0,1080,1920,0v-1080h-1920v1080z"/></clipPath><linearGradient id="linearGradient3934" y2="1741.4" gradientUnits="userSpaceOnUse" x2="2412" gradientTransform="matrix(0.8,0,0,0.8,-21.350063,-1155.5464)" y1="1741.4" x1="4.9744"><stop id="stop26" stop-color="#c81777" offset="0"/><stop id="stop28" stop-color="#008fc9" offset="1"/></linearGradient></defs><g id="g10" transform="matrix(1.25,0,0,-1.25,-1022.514,661.65833)"><rect id="rect3091" stroke-linejoin="miter" fill-rule="evenodd" transform="scale(1,-1)" height="416.05" width="1924.8" stroke="#000" stroke-linecap="butt" y="29.562" x="-16.971" stroke-width="0.8px" fill="url(#linearGradient3934)"/><g id="g3936" transform="matrix(2.0360151,0,0,2.0360151,114.34002,881.68901)" fill="#FFF"><g id="g100" fill="#FFF" transform="translate(-502.00314,-541.06873)"><g id="g102" fill="#FFF" clip-path="url(#clipPath104)"><g id="g108" transform="translate(856.9271,355.1574)"><path id="path110" d="m0,0,3.083-1.48c0.056-0.025,0.141-0.025,0.21,0,0.071,0.025,0.121,0.08,0.146,0.155l4.347,13.835c0.021,0.105,0,0.2-0.085,0.271-0.069,0.072-0.175,0.08-0.27,0.047l-16.597-7.715c-0.085-0.042-0.146-0.13-0.146-0.234,0-0.037,0.013-0.071,0.028-0.104l2.465-1.276,1.85-0.898c0.086-0.037,0.192-0.025,0.272,0.023,0,0,7.011,5.38,7.357,5.118s-5.603-5.825-5.603-5.825c-0.054-0.051-0.079-0.123-0.069-0.208l0.017-0.229,2.975-1.504,0.02,0.024z" fill-rule="nonzero" fill="#FFF"/></g><g id="g112" transform="translate(853.5692,356.0117)"><path id="path114" d="m0,0,0.328-4.407c0.01-0.098,0.08-0.191,0.176-0.228,0.035,0,0.061-0.013,0.086-0.013,0.07,0,0.141,0.033,0.191,0.093l2.473,2.869-3.254,1.686z" fill-rule="nonzero" fill="#FFF"/></g></g></g></g></g></svg>
